Coordinates
version=1
nRows=12
nColumns=24
inDegrees=yes

Units are S.I. units (second, meters, Newtons, ...)
Angles are in degrees.

endheader
time	pelvis_tilt	pelvis_list	pelvis_rotation	pelvis_tx	pelvis_ty	pelvis_tz	hip_flexion_r	hip_adduction_r	hip_rotation_r	knee_angle_r	ankle_angle_r	subtalar_angle_r	mtp_angle_r	hip_flexion_l	hip_adduction_l	hip_rotation_l	knee_angle_l	ankle_angle_l	subtalar_angle_l	mtp_angle_l	lumbar_extension	lumbar_bending	lumbar_rotation
      4.72000000	     36.92494746	     -1.87049402	     -1.73200710	     -0.34311820	      0.65107707	     -0.22743639	    -55.85167506	      1.02619058	     -2.32104989	    -11.91510641	     23.59699508	     13.95918831	      0.00000000	     -8.20790751	     -1.62665308	    -10.04480634	    -11.58287033	      8.56502035	     18.21393683	      0.00000000	    -63.80781867	     -0.18475195	      5.97765185
      4.72500000	     37.03376365	     -2.00460100	     -1.93560380	     -0.33675827	      0.65062256	     -0.22766232	    -56.00706422	      0.83239219	     -2.18478840	    -12.96835843	     23.06921334	     14.12135771	      0.00000000	     -8.57024381	     -1.69625284	     -9.99054603	    -11.92788533	      8.35768589	     18.01696420	      0.00000000	    -63.70507997	     -0.30433863	      5.86972713
      4.73000000	     37.12382271	     -2.07477191	     -2.12204606	     -0.33026769	      0.65019850	     -0.22788370	    -56.12666522	      0.61293729	     -2.08741650	    -14.05739897	     22.40582544	     14.28004682	      0.00000000	     -8.90363728	     -1.70440573	     -9.96678611	    -12.38271925	      8.11517752	     17.91315471	      0.00000000	    -63.55709531	     -0.44605525	      5.67551065
      4.73500000	     37.40860514	     -2.16765098	     -2.54109402	     -0.32379752	      0.64998516	     -0.22799491	    -56.36526065	      0.19716580	     -1.83747987	    -15.28173467	     21.72166276	     14.32350963	      0.00000000	     -9.55540104	     -1.64444858	    -10.08296072	    -12.75642667	      7.78718909	     17.52798478	      0.00000000	    -63.60130059	     -0.77675446	      5.70094459
      4.74000000	     37.57780118	     -2.17775732	     -2.78461421	     -0.31719748	      0.64973423	     -0.22819718	    -56.45546444	     -0.12137564	     -1.83105409	    -16.56384347	     20.88374159	     14.42561115	      0.00000000	    -10.05169209	     -1.54377221	    -10.13183095	    -13.18523393	      7.43632056	     17.39556816	      0.00000000	    -63.49757815	     -0.99746976	      5.44115060
      4.74500000	     37.83159144	     -2.11308676	     -3.08978490	     -0.31057185	      0.64956995	     -0.22834097	    -56.59852724	     -0.54101307	     -1.82767293	    -17.89290138	     19.93016794	     14.46401191	      0.00000000	    -10.61862980	     -1.32684114	    -10.15078421	    -13.71013782	      7.05117540	     17.03146624	      0.00000000	    -63.47286794	     -1.33154602	      5.18798664
      4.75000000	     38.05854061	     -2.00275027	     -3.32850836	     -0.30392416	      0.64944276	     -0.22854011	    -56.65149045	     -0.93801512	     -1.94670229	    -19.31631501	     18.85719376	     14.50527231	      0.00000000	    -11.14197971	     -1.06637606	    -10.12318210	    -14.25712369	      6.66356703	     16.68036867	      0.00000000	    -63.41426209	     -1.63864759	      4.84317887
      4.75500000	     38.29102399	     -1.84001041	     -3.55342072	     -0.29725994	      0.64937308	     -0.22877746	    -56.65167897	     -1.36396493	     -2.15330430	    -20.81870999	     17.65006965	     14.50296690	      0.00000000	    -11.65051019	     -0.73440210	    -10.02915799	    -14.84882750	      6.29419221	     16.23123115	      0.00000000	    -63.35939132	     -1.95681105	      4.44233660
      4.76000000	     38.52623225	     -1.62131243	     -3.74862794	     -0.29059487	      0.64936155	     -0.22902474	    -56.59425375	     -1.80408234	     -2.44110737	    -22.39759729	     16.30889119	     14.46093969	      0.00000000	    -12.13673863	     -0.34014860	     -9.88797878	    -15.48321345	      5.95684341	     15.70609175	      0.00000000	    -63.30316610	     -2.29064949	      3.99462489
      4.76500000	     38.78486581	     -1.33974358	     -3.93172192	     -0.28392543	      0.64941336	     -0.22931775	    -56.51178356	     -2.28914251	     -2.84021630	    -24.02782968	     14.83023353	     14.36079364	      0.00000000	    -12.61928355	      0.13838183	     -9.66131213	    -16.17070585	      5.67414596	     15.06504724	      0.00000000	    -63.26896179	     -2.64246931	      3.48374393
      4.77000000	     39.03736009	     -1.01139040	     -4.07910524	     -0.27728827	      0.64951494	     -0.22964854	    -56.35194051	     -2.78362648	     -3.31675624	    -25.74305985	     13.21320589	     14.21486339	      0.00000000	    -13.07276324	      0.66728611	     -9.39112005	    -16.88561482	      5.47207865	     14.38835214	      0.00000000	    -63.24161011	     -2.99831294	      2.94968662
      4.77500000	     39.29173103	     -0.64710645	     -4.21261031	     -0.27066804	      0.64967301	     -0.23002946	    -56.13510325	     -3.30959161	     -3.88124718	    -27.51333108	     11.45913841	     13.98578176	      0.00000000	    -13.50418507	      1.24614015	     -9.04749681	    -17.64704567	      5.35246338	     13.64053034	      0.00000000	    -63.22041523	     -3.34959256	      2.38084252
